<svg width="4098" height="356" viewBox="0 0 4098 356" fill="none" xmlns="http://www.w3.org/2000/svg">
<g filter="url(#filter0_f_54_229)">
<path fill-rule="evenodd" clip-rule="evenodd" d="M4098 346L3927.25 331.583C3756.5 317.167 3415 288.333 3073.5 259.5C2732 230.667 2390.5 201.833 2049 201.833C1707.5 201.833 1366 230.667 1024.5 252.291C683 273.916 341.5 288.333 170.75 295.541L4.95574e-05 302.75L7.60246e-05 3.23009e-07L170.75 1.52504e-05C341.5 3.01779e-05 683 6.00328e-05 1024.5 8.98876e-05C1366 0.000119743 1707.5 0.000149597 2049 0.000179452C2390.5 0.000209307 2732 0.000239162 3073.5 0.000269017C3415 0.000298872 3756.5 0.000328727 3927.25 0.000343654L4098 0.000358582L4098 346Z" fill="#EEEEEE"/>
<path fill-rule="evenodd" clip-rule="evenodd" d="M4098 346L3927.25 331.583C3756.5 317.167 3415 288.333 3073.5 259.5C2732 230.667 2390.5 201.833 2049 201.833C1707.5 201.833 1366 230.667 1024.5 252.291C683 273.916 341.5 288.333 170.75 295.541L4.95574e-05 302.75L7.60246e-05 3.23009e-07L170.75 1.52504e-05C341.5 3.01779e-05 683 6.00328e-05 1024.5 8.98876e-05C1366 0.000119743 1707.5 0.000149597 2049 0.000179452C2390.5 0.000209307 2732 0.000239162 3073.5 0.000269017C3415 0.000298872 3756.5 0.000328727 3927.25 0.000343654L4098 0.000358582L4098 346Z" stroke="#1F1F1F"/>
</g>
<defs>
<filter id="filter0_f_54_229" x="-10" y="-10" width="4118" height="366" filterUnits="userSpaceOnUse" color-interpolation-filters="sRGB">
<feFlood flood-opacity="0" result="BackgroundImageFix"/>
<feBlend mode="normal" in="SourceGraphic" in2="BackgroundImageFix" result="shape"/>
<feGaussianBlur stdDeviation="5" result="effect1_foregroundBlur_54_229"/>
</filter>
</defs>
</svg>
